<?xml version="1.0" standalone="no"?>
<!DOCTYPE svg PUBLIC "-//W3C//DTD SVG 20010904//EN"
 "http://www.w3.org/TR/2001/REC-SVG-20010904/DTD/svg10.dtd">
<svg version="1.0" xmlns="http://www.w3.org/2000/svg"
 width="32" height="32" viewBox="0 0 1024.000000 1024.000000"
 preserveAspectRatio="xMidYMid meet" >

<g transform="translate(0.000000,1024.000000) scale(0.100000,-0.100000)"
fill="#000000" stroke="none">
<path d="M4692 8755 c-24 -10 -39 -28 -54 -61 -20 -46 -20 -53 -8 -186 8 -82
9 -142 4 -147 -5 -4 -63 -17 -129 -29 -279 -50 -550 -164 -790 -334 -284 -202
-573 -543 -705 -834 -40 -90 -46 -124 -25 -168 31 -66 80 -89 262 -126 124
-25 180 -25 216 -1 33 21 87 94 122 162 31 61 206 270 292 349 98 90 216 176
308 222 152 77 311 127 405 128 l46 0 -4 -197 c-3 -219 0 -233 56 -266 61 -36
92 -17 275 166 89 89 223 218 297 286 299 274 297 272 267 336 -9 19 -59 68
-118 116 -57 46 -217 196 -357 334 -139 137 -261 253 -270 257 -27 11 -54 8
-90 -7z"/>
<path d="M5935 8278 c-58 -50 -125 -203 -125 -283 0 -55 30 -149 65 -201 29
-44 42 -55 102 -78 93 -37 282 -146 373 -215 99 -74 260 -237 330 -333 56 -76
175 -300 186 -349 l5 -26 -148 0 c-118 0 -154 -3 -180 -16 -65 -34 -96 -106
-71 -165 7 -18 96 -116 198 -220 102 -103 244 -249 315 -325 184 -194 148
-202 452 101 131 130 277 273 325 318 48 44 92 93 98 108 19 50 12 102 -17
137 -47 56 -91 69 -235 69 -107 0 -128 2 -128 15 0 25 -50 163 -106 293 -156
364 -364 618 -735 899 -168 128 -301 198 -501 268 -126 44 -156 45 -203 3z"/>
<path d="M3165 6561 c-17 -10 -75 -69 -130 -132 -55 -63 -178 -193 -273 -290
-96 -97 -183 -190 -193 -205 -23 -35 -25 -113 -5 -152 32 -62 45 -67 204 -72
l146 -5 26 -90 c34 -116 76 -219 151 -368 55 -111 81 -154 177 -292 116 -165
309 -359 507 -508 207 -155 519 -298 685 -314 47 -4 60 -1 90 19 72 49 79 70
79 251 0 243 -14 272 -149 322 -116 43 -202 88 -332 177 -150 101 -360 305
-437 423 -67 103 -170 310 -177 356 l-6 36 134 -5 c158 -5 191 5 226 67 49 88
27 136 -141 309 -73 75 -200 207 -282 292 -196 204 -230 224 -300 181z"/>
<path d="M6944 5640 c-26 -10 -46 -36 -136 -175 -96 -149 -162 -232 -271 -343
-130 -133 -228 -203 -395 -284 -154 -75 -252 -108 -319 -108 l-43 0 0 48 c1
26 8 65 16 87 8 22 18 75 21 117 5 70 4 80 -20 121 -31 53 -76 77 -143 77
l-48 0 -141 -147 c-77 -82 -226 -236 -331 -343 -215 -219 -225 -236 -188 -310
11 -22 164 -185 346 -369 l326 -331 52 0 c58 0 104 20 121 52 16 29 15 120 -1
255 -7 62 -11 116 -7 119 3 4 68 17 143 30 162 29 243 55 424 138 158 72 276
149 455 297 205 168 328 314 508 598 61 96 127 232 127 261 0 15 -13 46 -30
68 -26 36 -39 44 -102 63 -40 11 -115 36 -166 55 -92 34 -155 41 -198 24z"/>
<path d="M2546 3155 c-43 -15 -91 -57 -112 -97 -20 -39 -17 -107 6 -145 26
-43 111 -98 185 -118 96 -28 124 -69 65 -100 -43 -22 -70 -19 -139 17 l-61 32
-43 -30 c-53 -37 -58 -65 -18 -93 80 -57 198 -83 277 -62 91 25 154 97 154
179 0 93 -46 139 -186 186 -125 41 -150 77 -77 111 39 19 72 14 114 -16 15
-10 32 -19 38 -19 6 0 32 20 58 45 l48 45 -28 25 c-56 50 -197 70 -281 40z"/>
<path d="M2945 3160 c-8 -12 2 -586 9 -599 8 -12 317 -14 371 -2 27 5 30 11
33 46 5 72 -9 80 -139 78 -63 0 -122 3 -131 8 -14 7 -18 22 -18 59 l0 50 83 1
c125 2 140 7 150 52 14 59 -1 68 -127 74 l-107 6 3 51 3 51 110 7 c129 9 158
23 163 81 3 32 0 36 -25 40 -44 9 -373 6 -378 -3z"/>
<path d="M3583 3151 c-73 -27 -108 -55 -140 -109 -26 -44 -28 -55 -28 -157 0
-126 15 -172 80 -243 52 -58 107 -82 187 -82 56 0 76 5 126 33 33 17 72 42 87
55 27 21 27 23 10 42 -9 10 -36 28 -58 39 l-41 20 -53 -30 c-41 -24 -60 -29
-84 -24 -44 10 -94 65 -108 118 -26 104 -6 174 58 206 60 31 96 26 148 -22 25
-22 30 -20 97 36 37 30 32 44 -36 90 -47 33 -64 39 -124 43 -53 3 -81 0 -121
-15z"/>
<path d="M4110 3144 c-60 -34 -97 -70 -123 -119 -17 -34 -21 -58 -21 -155 -1
-140 10 -177 77 -247 54 -57 90 -73 168 -73 60 0 158 48 203 101 42 50 56 103
56 215 0 115 -14 159 -69 211 -97 93 -203 117 -291 67z m161 -124 c41 -22 66
-120 53 -207 -5 -37 -16 -57 -46 -87 -32 -33 -43 -38 -68 -32 -76 15 -104 66
-104 191 0 86 12 121 47 135 31 12 94 12 118 0z"/>
<path d="M4900 2999 l0 -171 -60 90 c-51 78 -79 117 -166 225 -10 12 -29 17
-70 17 l-57 0 7 -277 c4 -153 9 -288 13 -300 5 -21 11 -23 64 -23 l59 0 1 163
0 162 22 -29 c12 -16 67 -90 121 -163 l99 -133 55 0 55 0 -7 297 c-4 163 -9
300 -12 305 -3 4 -32 8 -65 8 l-59 0 0 -171z"/>
<path d="M5153 3013 c4 -87 7 -227 7 -310 l0 -153 78 0 c170 0 255 29 335 112
79 84 96 191 51 323 -24 68 -103 147 -164 162 -25 7 -105 14 -179 18 l-134 5
6 -157z m251 6 c82 -23 126 -104 106 -196 -18 -77 -46 -98 -162 -117 l-36 -7
-6 53 c-3 29 -7 104 -9 166 l-5 112 37 0 c20 0 54 -5 75 -11z"/>
<path d="M5727 3018 c-5 -131 -5 -261 2 -419 1 -35 3 -37 45 -43 24 -4 56 -4
70 0 l26 6 0 119 0 119 80 0 c77 0 81 -1 90 -26 6 -14 10 -65 10 -113 0 -98 5
-108 62 -117 24 -4 40 -1 58 14 22 18 24 28 27 118 2 55 0 187 -4 294 l-8 195
-66 3 -66 3 -6 -77 c-4 -42 -7 -94 -7 -115 l0 -37 -63 -7 c-117 -13 -112 -18
-112 115 l0 115 -66 3 -67 3 -5 -153z"/>
<path d="M7262 3162 c-9 -6 -15 -57 -20 -175 l-7 -166 -75 112 c-41 61 -94
138 -117 169 l-43 58 -56 0 -55 0 3 -285 c3 -320 1 -311 78 -317 l45 -3 5 170
c5 167 5 170 23 145 10 -14 59 -88 110 -165 l92 -140 57 0 c31 0 60 4 65 8 8
9 7 576 -1 584 -10 10 -91 14 -104 5z"/>
<path d="M7493 3164 c-9 -4 -11 -18 -7 -43 3 -21 9 -157 13 -302 l6 -264 126
1 c116 0 130 2 182 28 59 29 130 99 151 151 22 51 28 132 15 197 -20 103 -95
189 -189 217 -40 12 -278 24 -297 15z m267 -152 c47 -23 71 -70 77 -145 3 -50
0 -68 -16 -95 -31 -48 -77 -72 -138 -72 l-53 0 0 165 0 165 48 0 c26 0 63 -8
82 -18z"/>
<path d="M6497 3128 c-40 -38 -61 -78 -110 -204 -19 -50 -46 -113 -61 -141
-32 -64 -69 -194 -57 -206 4 -4 28 -14 53 -22 45 -13 46 -13 72 14 14 14 32
44 39 66 15 43 4 39 150 58 l48 7 29 -65 c34 -76 60 -94 118 -79 34 9 37 12
34 42 -3 38 -107 367 -154 485 l-31 77 -48 0 c-40 0 -53 -5 -82 -32z m70 -220
c49 -93 50 -88 -16 -88 l-59 0 21 70 c11 39 22 70 23 70 2 0 16 -24 31 -52z"/>
<path d="M5190 2060 c-22 -5 -51 -25 -78 -55 -40 -42 -43 -49 -37 -83 10 -55
31 -88 70 -112 95 -59 215 8 215 119 0 95 -75 152 -170 131z"/>
<path d="M4488 2035 c-34 -19 -68 -74 -68 -111 0 -91 111 -159 190 -116 49 27
81 90 70 139 -13 57 -68 103 -122 103 -24 -1 -55 -7 -70 -15z"/>
<path d="M5852 2043 c-13 -3 -38 -20 -57 -39 -27 -27 -35 -43 -35 -72 0 -76
60 -132 141 -132 35 0 48 6 80 39 35 34 39 44 39 87 0 55 -18 83 -67 108 -31
16 -55 18 -101 9z"/>
<path d="M6320 2043 c-23 -9 -70 -55 -86 -86 -13 -25 -13 -32 4 -70 38 -83
104 -111 179 -75 61 29 81 127 39 189 -29 43 -86 60 -136 42z"/>
<path d="M3962 2020 c-33 -20 -72 -74 -72 -98 0 -30 34 -83 65 -102 42 -26 68
-25 117 2 68 39 86 99 45 159 -40 60 -97 74 -155 39z"/>
<path d="M6800 2013 c-26 -13 -39 -29 -50 -61 -13 -38 -13 -45 3 -75 10 -19
32 -41 48 -51 78 -46 195 34 167 114 -24 71 -104 106 -168 73z"/>
</g>
</svg>
